<svg width="32" height="33" viewBox="0 0 32 33" fill="none" xmlns="http://www.w3.org/2000/svg">
    <path
        d="M16.0021 32.0128C13.1008 32.0128 10.2647 31.1524 7.85239 29.5406C5.44007 27.9287 3.5599 25.6377 2.44963 22.9573C1.33936 20.2769 1.04887 17.3274 1.61488 14.4819C2.18089 11.6364 3.57798 9.02258 5.62949 6.97107C7.681 4.91956 10.2948 3.52247 13.1403 2.95646C15.9858 2.39045 18.9353 2.68095 21.6157 3.79121C24.2961 4.90148 26.5871 6.78166 28.199 9.19397C29.8109 11.6063 30.6712 14.4424 30.6712 17.3437C30.6712 21.2342 29.1257 24.9653 26.3747 27.7163C23.6237 30.4673 19.8926 32.0128 16.0021 32.0128ZM16.0021 5.3417C13.6283 5.3417 11.3079 6.04561 9.33415 7.3644C7.36044 8.68319 5.82212 10.5576 4.91372 12.7507C4.00532 14.9438 3.76764 17.357 4.23074 19.6851C4.69383 22.0133 5.83691 24.1518 7.51542 25.8304C9.19392 27.5089 11.3325 28.6519 13.6606 29.115C15.9888 29.5781 18.402 29.3405 20.5951 28.4321C22.7881 27.5237 24.6626 25.9853 25.9814 24.0116C27.3002 22.0379 28.0041 19.7174 28.0041 17.3437C28.0041 14.1606 26.7396 11.1078 24.4888 8.857C22.238 6.60619 19.1852 5.3417 16.0021 5.3417Z"
        fill="#0F2737" />
    <path
        d="M19.4562 22.6779L14.6687 17.8904V9.34238H17.3358V16.7836L21.3365 20.7976L19.4562 22.6779Z"
        fill="#0F2737" />
    <path d="M4.77582 0.0117139L0 4.79755L1.8879 6.6815L6.66372 1.89567L4.77582 0.0117139Z"
        fill="#0F2737" />
    <path
        d="M27.2241 -1.08055e-05L25.3362 1.88394L30.112 6.66977L31.9999 4.78582L27.2241 -1.08055e-05Z"
        fill="#0F2737" />
</svg>