<svg width="32" height="32" viewBox="0 0 32 32" fill="none" xmlns="http://www.w3.org/2000/svg">
    <path d="M16 9.43591V16L20.1026 20.1026" stroke="#0F2737" stroke-width="2"
        stroke-linecap="round"
        stroke-linejoin="round" />
    <path
        d="M3.42622 7.58254L2.19546 7.58873C2.19884 8.26361 2.74512 8.8099 3.42003 8.81329L3.42622 7.58254ZM7.59734 8.83428C8.27707 8.83769 8.83087 8.28944 8.83428 7.60971C8.83769 6.92999 8.28944 6.37619 7.60971 6.37278L7.59734 8.83428ZM4.63598 3.39904C4.63255 2.71931 4.07877 2.17104 3.39904 2.17446C2.71931 2.17789 2.17104 2.73168 2.17447 3.4114L4.63598 3.39904ZM2.46154 16C2.46154 15.3203 1.9105 14.7692 1.23077 14.7692C0.55104 14.7692 0 15.3203 0 16H2.46154ZM24.0008 29.8588C24.5893 29.5184 24.7903 28.7655 24.45 28.1771C24.1096 27.5888 23.3567 27.3876 22.7684 27.7281L24.0008 29.8588ZM27.7281 22.7684C27.3876 23.3567 27.5888 24.1096 28.1771 24.45C28.7655 24.7903 29.5184 24.5893 29.8588 24.0008L27.7281 22.7684ZM4.7431 4.62976C4.26007 5.108 4.25618 5.88728 4.73444 6.37031C5.21268 6.85335 5.99194 6.85722 6.47498 6.37898L4.7431 4.62976ZM27.2612 4.73905C20.9922 -1.52999 10.8617 -1.59347 4.63409 4.63409L6.37466 6.37466C11.6245 1.12484 20.1964 1.15535 25.5207 6.47962L27.2612 4.73905ZM4.63409 4.63409L2.55593 6.71225L4.2965 8.45282L6.37466 6.37466L4.63409 4.63409ZM3.42003 8.81329L7.59734 8.83428L7.60971 6.37278L3.4324 6.35179L3.42003 8.81329ZM4.65697 7.57635L4.63598 3.39904L2.17447 3.4114L2.19546 7.58873L4.65697 7.57635ZM16 2.46154C23.477 2.46154 29.5385 8.52291 29.5385 16H32C32 7.16344 24.8366 0 16 0V2.46154ZM16 29.5385C8.52291 29.5385 2.46154 23.477 2.46154 16H0C0 24.8366 7.16344 32 16 32V29.5385ZM22.7684 27.7281C20.7783 28.8793 18.4679 29.5385 16 29.5385V32C18.9123 32 21.6463 31.2208 24.0008 29.8588L22.7684 27.7281ZM29.5385 16C29.5385 18.4679 28.8793 20.7783 27.7281 22.7684L29.8588 24.0008C31.2208 21.6463 32 18.9123 32 16H29.5385ZM6.47498 6.37898C8.92237 3.95584 12.2855 2.46154 16 2.46154V0C11.6109 0 7.63262 1.76888 4.7431 4.62976L6.47498 6.37898Z"
        fill="#0F2737" />
</svg>