<svg width="34" height="34" viewBox="0 0 34 34" fill="none" xmlns="http://www.w3.org/2000/svg">
<path d="M11.6667 32.2636H2.77778C1.79595 32.2636 1 31.4677 1 30.4858V17C1 16.5285 1.18731 16.0762 1.52069 15.7429L15.7429 1.52071C16.4372 0.826431 17.5628 0.826431 18.2571 1.52071L32.4793 15.7429C32.8126 16.0762 33 16.5285 33 17V30.4858C33 31.4677 32.2041 32.2636 31.2222 32.2636H22.3333M11.6667 32.2636H22.3333M11.6667 32.2636V21.597C11.6667 20.6151 12.4626 19.8192 13.4444 19.8192H20.5556C21.5374 19.8192 22.3333 20.6151 22.3333 21.597V32.2636" stroke="#FBA725" stroke-width="2" stroke-linejoin="round"/>
</svg>
